{"glyphs":{":":{"x_min":0,"x_max":250,"ha":250,"o":"m 123 281 q 112 281 106 287 q 100 292 100 303 q 100 324 114 342 q 127 359 144 359 q 155 359 160 353 q 166 347 166 336 q 166 315 152 298 q 139 281 123 281 z m 2 -7 q -8 -7 -14 -1 q -20 5 -20 16 q -20 37 -6 54 q 7 71 24 71 q 35 71 40 65 q 46 59 46 48 q 46 28 32 10 q 18 -7 2 -7 z"},"$":{"x_min":0,"x_max":454,"ha":454,"o":"m 136 56 q 188 58 221 91 q 254 125 254 174 q 254 196 245 217 q 237 237 218 260 z m 214 333 l 283 503 q 238 500 210 475 q 183 450 183 412 q 183 395 191 375 q 198 356 214 333 z m 45 -85 l 91 30 q 51 38 29 66 q 6 94 6 137 q 6 160 10 169 q 15 179 26 179 q 34 179 39 175 q 44 171 44 165 q 44 161 42 152 q 41 142 41 136 q 41 104 57 85 q 73 66 104 61 l 196 288 q 169 318 156 346 q 143 374 143 400 q 143 460 183 497 q 224 534 290 534 q 292 534 293 534 q 293 534 295 533 l 331 622 l 361 613 l 326 527 q 357 518 373 499 q 388 480 388 452 q 388 437 384 430 q 379 424 369 424 q 360 424 357 427 q 353 431 353 440 q 353 440 354 443 q 354 446 354 448 q 354 468 345 479 q 336 490 314 498 l 237 306 q 266 275 279 245 q 293 214 293 181 q 293 114 248 70 q 203 25 133 25 q 129 25 127 25 q 125 25 123 26 l 75 -96 z"},"?":{"x_min":0,"x_max":308,"ha":308,"o":"m 8 -7 q -2 -7 -8 -1 q -14 5 -14 16 q -14 37 0 54 q 13 71 30 71 q 41 71 46 65 q 52 59 52 48 q 52 28 38 10 q 23 -7 8 -7 z m 32 128 q 43 169 68 207 q 92 246 136 290 q 146 300 164 318 q 276 431 276 492 q 276 519 261 535 q 246 552 222 552 q 189 552 160 529 q 130 506 95 452 l 72 470 q 105 529 143 556 q 181 584 227 584 q 270 584 293 561 q 317 537 317 495 q 317 421 203 310 q 172 280 157 264 q 122 228 98 193 q 73 159 57 125 z"},"<":{"x_min":0,"x_max":833,"ha":833,"o":"m 704 505 l 194 298 l 704 91 l 704 48 l 129 283 l 129 313 l 704 549 z"},"'":{"x_min":0,"x_max":139,"ha":139,"o":"m 91 700 l 91 430 l 49 430 l 49 700 z"},"=":{"x_min":0,"x_max":833,"ha":833,"o":"m 709 229 l 709 189 l 124 189 l 124 229 z m 709 406 l 709 367 l 124 367 l 124 406 z"},"a":{"x_min":0,"x_max":417,"ha":417,"o":"m 198 74 q 196 69 194 64 q 193 60 193 58 q 193 55 195 52 q 197 49 199 49 q 207 49 253 82 q 299 115 372 173 l 372 133 l 360 124 q 188 -10 154 -10 q 146 -10 141 -3 q 135 3 135 13 q 135 18 138 29 q 142 40 148 54 l 180 127 q 131 54 95 24 q 59 -7 23 -7 q -14 -7 -38 24 q -61 56 -61 106 q -61 143 -47 177 q -33 210 -4 242 q 45 295 112 327 q 179 359 241 359 q 267 359 287 354 q 307 349 326 337 l 324 299 q 304 312 283 319 q 263 325 240 325 q 186 325 125 297 q 65 269 28 225 q 4 197 -9 167 q -22 136 -22 107 q -22 73 -8 53 q 7 33 31 33 q 61 33 106 83 q 152 132 253 280 l 292 276 z"},"L":{"x_min":0,"x_max":512,"ha":512,"o":"m 428 58 l 409 10 q 357 1 306 -3 q 254 -8 206 -8 q 160 -8 116 -2 q 73 3 30 14 q 8 2 -16 -3 q -40 -8 -70 -8 q -97 -8 -112 1 q -127 9 -127 24 q -127 43 -105 55 q -83 66 -45 66 q -30 66 -12 63 q 6 61 28 56 q 120 103 212 359 q 229 405 238 430 q 292 573 344 638 q 397 702 459 702 q 498 702 521 676 q 544 650 544 606 q 544 551 511 474 q 479 397 417 311 l 356 301 q 425 391 462 471 q 500 552 500 608 q 500 633 489 647 q 477 661 456 661 q 408 661 363 594 q 318 528 266 378 q 206 206 167 142 q 127 78 73 42 q 102 38 135 35 q 168 33 208 33 q 272 33 328 40 q 384 46 428 58 z"},"3":{"x_min":0,"x_max":454,"ha":454,"o":"m 240 327 q 303 361 341 405 q 378 448 378 485 q 378 509 363 524 q 348 538 321 538 q 294 538 266 525 q 237 512 210 488 q 203 481 192 468 q 175 448 163 448 q 157 448 152 451 q 148 454 148 459 q 148 468 157 480 q 166 492 186 511 q 222 543 258 559 q 295 574 334 574 q 372 574 396 551 q 419 528 419 491 q 419 441 380 394 q 341 346 273 312 q 301 298 317 271 q 333 243 333 207 q 333 167 312 126 q 291 85 253 52 q 220 23 184 8 q 148 -7 111 -7 q 49 -7 13 25 q -22 57 -22 113 q -22 140 -16 154 q -10 167 3 167 q 9 167 11 164 q 13 161 13 149 q 13 146 13 138 q 12 130 12 125 q 12 77 37 52 q 61 28 109 28 q 178 28 233 85 q 289 143 289 211 q 289 240 277 261 q 266 282 241 297 q 226 290 211 286 q 196 283 179 283 q 162 283 154 290 q 145 296 145 309 q 145 322 156 329 q 167 336 186 336 q 200 336 213 334 q 227 332 240 327 z"},";":{"x_min":0,"x_max":250,"ha":250,"o":"m 123 281 q 112 281 106 287 q 100 292 100 303 q 100 324 114 342 q 127 359 144 359 q 155 359 160 353 q 166 347 166 336 q 166 315 152 298 q 139 281 123 281 z m -1 71 l 69 71 l -40 -93 l -70 -93 z"},"J":{"x_min":0,"x_max":331,"ha":331,"o":"m 92 239 l 50 237 l 50 255 q 50 314 68 381 q 86 447 122 518 q 165 603 212 652 q 260 701 298 701 q 328 701 345 680 q 362 660 362 623 q 362 559 307 409 q 251 259 154 62 q 145 44 128 10 q -12 -273 -78 -273 q -109 -273 -125 -253 q -142 -233 -142 -196 q -142 -86 -54 30 q 34 145 184 229 q 245 359 282 474 q 320 588 320 626 q 320 641 312 649 q 304 657 291 657 q 265 657 222 602 q 178 547 143 465 q 120 410 107 353 q 94 296 92 239 z m 156 164 q 45 98 -27 -7 q -100 -113 -100 -194 q -100 -210 -94 -221 q -87 -232 -78 -232 q -44 -232 121 94 z"},"V":{"x_min":0,"x_max":525,"ha":525,"o":"m 63 354 l 23 330 l 16 332 q 49 487 122 594 q 195 702 259 702 q 285 702 300 685 q 316 668 316 641 q 316 598 227 420 q 205 376 193 352 l 182 330 q 79 123 79 81 q 79 56 91 46 q 103 35 130 35 q 189 35 270 106 q 351 177 430 300 q 483 384 516 461 q 549 539 556 597 l 599 635 l 599 627 q 599 564 565 475 q 531 385 469 286 q 382 146 292 70 q 201 -7 124 -7 q 81 -7 57 14 q 33 35 33 73 q 33 121 113 279 q 135 321 146 344 l 161 373 q 277 606 277 634 q 277 644 270 652 q 262 659 252 659 q 232 659 205 633 q 178 606 148 558 q 113 502 93 453 q 72 403 63 354 z"},"\"":{"x_min":0,"x_max":269,"ha":269,"o":"m 220 700 l 220 430 l 178 430 l 178 700 z m 91 700 l 91 430 l 49 430 l 49 700 z"},"7":{"x_min":0,"x_max":454,"ha":454,"o":"m 372 523 q 369 523 358 522 q 348 522 341 522 q 321 522 278 529 q 235 535 213 535 q 195 535 180 533 q 164 531 149 527 l 147 524 q 102 443 79 443 q 71 443 66 448 q 60 454 60 462 q 60 478 82 505 q 103 533 109 543 q 111 547 115 554 q 127 578 143 578 q 150 578 155 574 q 160 571 163 563 l 167 563 q 205 569 221 569 q 243 569 285 563 q 328 558 349 558 q 364 558 385 562 q 406 567 412 567 q 420 567 425 563 q 429 560 429 552 q 429 549 369 459 q 310 369 261 264 q 252 246 237 212 q 130 -17 98 -17 q 91 -17 83 -11 q 76 -5 76 0 q 76 1 85 15 q 138 95 191 209 q 243 319 285 391 q 326 463 372 523 z"},"S":{"x_min":0,"x_max":539,"ha":539,"o":"m 312 180 l 300 145 q 239 157 203 162 q 167 167 147 167 q 78 167 37 147 q -4 128 -4 97 q -4 64 40 47 q 84 30 167 30 q 265 30 331 73 q 398 116 398 176 q 398 209 376 234 q 354 259 288 292 q 197 338 170 372 q 144 405 144 454 q 144 503 179 553 q 214 602 279 643 q 322 670 370 686 q 417 702 456 702 q 500 702 525 683 q 550 663 550 630 q 550 567 466 511 q 382 455 253 438 l 262 472 q 368 491 438 537 q 508 583 508 625 q 508 645 495 655 q 483 664 457 664 q 428 664 387 649 q 347 635 303 608 q 246 573 215 534 q 184 495 184 457 q 184 423 207 396 q 229 369 280 343 q 292 336 316 325 q 371 299 392 281 q 417 260 431 232 q 445 205 445 178 q 445 98 364 45 q 282 -8 154 -8 q 59 -8 6 19 q -47 46 -47 95 q -47 139 6 173 q 59 206 137 206 q 173 206 218 199 q 262 193 312 180 z"},"}":{"x_min":0,"x_max":500,"ha":500,"o":"m 266 537 l 266 420 q 266 343 294 311 q 323 280 392 280 q 396 280 403 280 q 410 281 414 281 l 414 237 q 410 237 403 237 q 396 238 392 238 q 323 238 294 207 q 266 175 266 98 l 266 -19 q 266 -129 233 -166 q 199 -202 107 -202 l 86 -202 l 86 -159 l 105 -159 q 170 -159 193 -135 q 216 -110 216 -31 l 216 87 q 216 172 237 208 q 258 243 312 259 q 258 274 237 310 q 216 346 216 431 l 216 549 q 216 628 193 653 q 170 678 104 678 l 86 678 l 86 721 l 107 721 q 199 721 233 685 q 266 648 266 537 z"},"Z":{"x_min":0,"x_max":412,"ha":412,"o":"m 148 285 q 226 278 260 249 q 294 219 294 159 q 294 91 258 14 q 222 -63 161 -125 q 104 -183 54 -211 q 4 -239 -41 -239 q -83 -239 -104 -217 q -126 -196 -126 -154 q -126 -104 -97 -50 q -67 4 -16 48 q 16 75 42 91 q 67 106 81 106 q 87 106 90 104 q 93 101 93 95 q 93 90 63 65 q 34 40 12 19 q -35 -25 -60 -70 q -85 -115 -85 -154 q -85 -178 -73 -190 q -60 -202 -36 -202 q -4 -202 42 -172 q 89 -141 136 -89 q 188 -31 219 38 q 250 106 250 160 q 250 195 235 212 q 220 229 179 238 q 175 239 169 240 q 112 251 112 282 q 112 311 180 356 q 217 380 238 396 q 306 449 341 497 q 375 546 375 590 q 375 620 355 639 q 334 658 302 658 q 255 658 191 617 q 128 576 61 501 l 75 569 q 130 630 195 666 q 260 702 312 702 q 360 702 389 670 q 419 638 419 586 q 419 522 360 455 q 301 388 148 285 z"},"x":{"x_min":0,"x_max":412,"ha":412,"o":"m -62 0 l 127 203 l 133 284 l 133 295 q 133 300 131 303 q 128 307 125 307 q 117 307 60 239 q 2 171 -60 122 l -60 162 q -4 208 59 283 q 122 359 148 359 q 164 359 171 349 q 179 338 179 318 q 179 317 179 313 q 178 309 178 306 l 172 241 l 270 352 l 319 352 l 165 176 l 158 71 q 158 67 158 61 q 157 54 157 52 q 157 42 160 38 q 163 33 170 33 q 180 33 229 68 q 278 102 368 173 l 368 133 q 254 43 213 18 q 171 -7 148 -7 q 132 -7 124 1 q 116 9 116 26 l 116 39 l 116 48 l 122 144 l -16 0 z"},")":{"x_min":0,"x_max":269,"ha":269,"o":"m -183 -244 q -21 -45 63 163 q 147 370 147 572 q 147 605 144 637 q 141 669 135 701 l 175 701 q 181 669 184 637 q 187 604 187 569 q 187 370 100 157 q 14 -56 -144 -244 z"},"&":{"x_min":0,"x_max":387,"ha":387,"o":"m 235 85 q 188 39 142 16 q 97 -6 49 -6 q 5 -6 -22 17 q -49 40 -49 76 q -49 102 -33 127 q -18 153 13 180 q 26 191 48 208 q 82 235 82 245 q 82 247 65 278 q 48 309 48 339 q 48 411 116 467 q 185 522 280 522 q 322 522 346 507 q 371 493 371 469 q 371 446 303 393 q 236 340 196 291 l 168 310 q 206 365 265 412 q 325 458 325 467 q 325 476 312 482 q 300 489 280 489 q 211 489 150 441 q 89 393 89 336 q 89 310 107 278 q 125 246 125 237 q 125 222 83 186 q 78 182 75 180 l 72 178 q -4 114 -4 82 q -4 61 14 47 q 31 33 58 33 q 94 33 135 55 q 175 76 217 117 l 174 192 l 203 213 l 244 144 q 258 159 271 175 q 285 191 300 211 l 335 211 q 319 184 301 159 q 283 135 263 112 q 279 86 298 58 q 317 30 339 0 l 294 0 q 289 7 269 37 q 248 66 235 85 z"},"_":{"x_min":0,"x_max":500,"ha":500,"o":"m 500 -197 l 500 -236 l 0 -236 l 0 -197 z"},"v":{"x_min":0,"x_max":417,"ha":417,"o":"m 7 174 q -12 157 -28 144 q -45 131 -60 122 l -60 162 q -21 191 9 220 q 38 249 44 262 l 85 352 l 128 352 l 13 99 q 6 83 2 72 q -1 60 -1 52 q -1 39 4 34 q 10 29 23 29 q 59 29 104 65 q 149 102 189 165 q 203 244 233 302 q 263 359 284 359 q 289 359 291 353 q 294 348 294 337 q 294 307 275 257 q 256 208 223 155 q 229 141 243 134 q 256 126 275 126 q 296 126 319 137 q 341 148 376 177 l 376 137 q 352 116 323 104 q 295 92 271 92 q 251 92 234 100 q 217 107 204 122 q 159 60 111 27 q 62 -7 18 -7 q -12 -7 -27 8 q -43 22 -43 50 q -43 65 -36 87 q -30 108 -18 129 z"},"O":{"x_min":0,"x_max":546,"ha":546,"o":"m 288 416 l 260 397 q 258 396 256 395 q 254 394 253 394 q 249 394 245 399 q 242 403 242 411 q 242 423 251 446 q 260 469 276 497 q 312 560 359 594 q 405 629 453 629 q 499 629 526 597 q 554 565 554 511 q 554 456 522 370 q 491 283 439 203 q 376 105 297 49 q 219 -7 147 -7 q 79 -7 39 37 q -2 82 -2 157 q -2 248 48 362 q 98 476 178 563 q 235 625 311 664 q 386 702 443 702 q 453 702 457 699 q 460 696 460 689 q 460 673 406 662 q 353 651 310 625 q 253 591 209 540 q 166 489 124 411 q 86 338 64 270 q 43 201 43 157 q 43 101 72 67 q 101 33 147 33 q 217 33 291 94 q 364 156 428 269 q 467 338 491 404 q 514 470 514 506 q 514 543 496 568 q 478 592 451 592 q 401 592 361 549 q 322 506 288 416 z"},"(":{"x_min":0,"x_max":269,"ha":269,"o":"m 370 701 q 208 501 124 295 q 40 88 40 -114 q 40 -151 43 -182 q 45 -213 51 -243 l 12 -243 q 6 -211 3 -179 q 0 -146 0 -111 q 0 88 86 301 q 173 513 331 701 z"},"C":{"x_min":0,"x_max":512,"ha":512,"o":"m 449 180 q 404 90 339 42 q 273 -7 199 -7 q 116 -7 62 48 q 8 103 8 190 q 8 276 54 373 q 100 470 181 553 q 250 623 319 662 q 388 701 443 701 q 497 701 529 672 q 561 643 561 593 q 561 502 475 414 q 388 326 254 287 l 270 332 q 379 370 449 446 q 520 522 520 595 q 520 626 499 646 q 478 665 443 665 q 405 665 353 636 q 302 607 242 553 q 156 475 105 379 q 53 283 53 205 q 53 128 94 83 q 134 38 201 38 q 265 38 320 78 q 375 118 416 195 z"},"W":{"x_min":0,"x_max":771,"ha":771,"o":"m 63 354 l 20 329 l 16 332 q 53 498 122 600 q 190 702 262 702 q 290 702 308 684 q 327 665 327 637 q 327 618 317 588 q 307 558 271 483 l 72 58 l 529 553 l 563 545 l 381 155 q 379 151 375 143 q 351 90 351 68 q 351 49 361 41 q 371 32 393 32 q 448 32 531 113 q 613 194 687 326 q 741 422 773 509 q 805 596 808 655 l 846 674 q 847 670 847 667 q 847 664 847 656 q 847 596 815 506 q 783 416 721 303 q 642 160 552 76 q 462 -7 387 -7 q 350 -7 327 12 q 305 31 305 63 q 305 77 313 100 q 321 123 346 176 l 469 435 l 141 75 q 136 69 125 58 q 65 -10 41 -10 q 28 -10 21 -2 q 14 6 14 21 q 14 31 20 47 q 26 64 42 97 l 239 517 l 245 529 q 282 608 282 630 q 282 645 274 653 q 266 662 252 662 q 212 662 153 572 q 94 481 63 354 z"},"A":{"x_min":0,"x_max":562,"ha":562,"o":"m -61 0 q -47 44 -21 100 q 6 157 53 241 q 44 240 8 237 q -28 234 -49 232 l -31 270 q -9 273 17 275 q 42 277 76 278 q 197 472 321 587 q 446 702 529 702 q 555 702 569 689 q 583 675 583 650 q 583 614 524 423 q 465 231 428 93 q 431 77 433 65 q 434 53 434 44 q 434 21 425 7 q 417 -7 402 -7 q 388 -7 380 5 q 372 16 372 37 q 372 49 378 96 l 379 100 q 347 166 278 200 q 208 235 102 240 q 60 166 31 104 q 3 42 -9 0 z m 125 277 q 229 267 294 236 q 359 205 394 149 q 425 250 474 405 q 539 612 539 635 q 539 648 533 654 q 526 660 513 660 q 459 660 347 553 q 235 445 125 277 z"},"f":{"x_min":0,"x_max":257,"ha":257,"o":"m 215 177 l 215 137 q 186 110 157 87 q 127 65 97 46 q 89 -92 35 -192 q -20 -292 -76 -292 q -98 -292 -109 -277 q -121 -261 -121 -232 q -121 -216 -116 -192 q -111 -169 -102 -143 l 17 190 q 3 176 -14 160 q -32 144 -59 122 l -59 162 q -15 202 10 228 q 34 254 46 275 l 149 559 q 157 583 171 622 q 206 725 226 725 q 234 725 241 718 q 247 710 247 701 q 247 690 193 554 q 139 418 96 296 l -59 -144 l -61 -150 q -81 -206 -81 -225 q -81 -235 -77 -241 q -72 -248 -66 -248 q -33 -248 13 -149 q 59 -51 63 66 q 104 89 141 117 q 179 144 215 177 z"},"Q":{"x_min":0,"x_max":500,"ha":500,"o":"m 408 3 q 361 -2 322 -4 q 282 -7 254 -7 q 205 -7 149 0 q 93 8 29 23 q -9 5 -29 -1 q -50 -8 -66 -8 q -91 -8 -108 3 q -124 14 -124 29 q -124 50 -104 62 q -83 73 -46 73 q -28 73 -11 71 q 6 68 24 64 q 101 103 171 150 q 241 198 296 247 q 388 331 446 423 q 503 514 503 569 q 503 611 475 637 q 446 664 401 664 q 324 664 234 583 q 144 503 80 372 l 54 410 q 118 545 213 623 q 309 701 407 701 q 472 701 510 667 q 548 632 548 573 q 548 460 420 311 q 293 162 91 52 q 135 43 176 39 q 217 35 258 35 q 288 35 324 38 q 360 41 411 47 z"},"w":{"x_min":0,"x_max":586,"ha":586,"o":"m 7 174 q -12 157 -28 144 q -45 131 -60 122 l -60 162 q -21 191 9 221 q 39 250 44 262 l 84 352 l 125 352 l 17 102 q 5 74 1 65 q -2 56 -2 52 q -2 47 0 44 q 3 41 7 41 q 21 41 62 82 q 104 122 166 195 q 190 224 223 272 q 256 321 271 321 q 276 321 280 317 q 283 312 283 305 q 283 297 271 267 q 267 254 264 247 l 207 89 q 205 83 202 75 q 193 51 193 43 q 193 36 196 33 q 200 30 207 30 q 235 30 274 65 q 313 101 356 165 q 371 243 401 301 q 432 359 451 359 q 456 359 459 353 q 462 347 462 339 q 462 307 443 257 q 424 208 391 155 q 397 141 411 134 q 424 126 443 126 q 464 126 487 137 q 509 148 544 177 l 544 137 q 520 116 491 104 q 462 92 438 92 q 418 92 402 99 q 386 107 372 122 q 324 57 281 25 q 239 -7 201 -7 q 178 -7 163 4 q 148 16 148 34 q 148 41 151 52 q 153 63 159 79 l 198 184 q 129 93 73 43 q 17 -8 -15 -8 q -31 -8 -41 3 q -51 14 -51 31 q -51 39 -48 51 q -44 63 -38 77 z"},"-":{"x_min":0,"x_max":345,"ha":345,"o":"m -10 164 l 5 199 l 227 199 l 213 164 z"},"E":{"x_min":0,"x_max":442,"ha":442,"o":"m 385 215 q 328 114 240 53 q 153 -7 66 -7 q 10 -7 -23 23 q -55 52 -55 104 q -55 155 -14 202 q 26 249 112 297 q 91 325 81 357 q 70 388 70 422 q 70 468 94 519 q 119 570 161 612 q 203 653 256 677 q 309 701 359 701 q 400 701 426 681 q 451 662 451 630 q 451 596 341 463 q 314 431 299 413 l 273 441 q 290 461 319 498 q 409 608 409 634 q 409 647 394 655 q 378 663 353 663 q 322 663 282 644 q 242 625 204 591 q 159 551 135 506 q 111 461 111 418 q 111 388 123 355 q 136 323 164 281 q 72 230 33 190 q -7 149 -7 108 q -7 74 15 54 q 36 34 74 34 q 145 34 219 83 q 293 133 344 215 z"},"s":{"x_min":0,"x_max":347,"ha":347,"o":"m 300 172 l 300 131 q 212 63 167 41 q 123 20 80 17 q 52 4 34 -1 q 17 -7 3 -7 q -23 -7 -42 5 q -62 16 -62 31 q -62 37 -56 39 q -51 42 -38 42 q -32 42 -13 40 q 6 38 19 38 q 28 38 54 41 q 60 42 63 42 q 98 83 115 146 q 132 209 133 302 q 71 234 22 188 q -26 143 -60 122 l -60 162 q -2 207 50 260 q 103 312 146 371 q 155 413 167 431 q 179 450 197 450 q 207 450 214 442 q 221 435 221 424 q 221 409 208 388 q 195 368 171 345 l 171 308 q 171 218 154 147 q 138 76 112 50 q 140 57 178 81 q 216 104 300 172 z"},">":{"x_min":0,"x_max":833,"ha":833,"o":"m 704 313 l 704 283 l 129 48 l 129 91 l 639 298 l 129 505 l 129 549 z"},"l":{"x_min":0,"x_max":243,"ha":243,"o":"m 197 173 l 197 133 q 182 121 153 99 q 17 -7 -10 -7 q -23 -7 -30 0 q -37 7 -37 21 q -37 30 -33 44 q -30 58 -19 87 l 15 180 q -3 164 -22 149 q -41 135 -60 122 l -60 162 q -20 192 10 222 q 40 251 44 262 l 192 667 q 205 703 213 714 q 221 725 232 725 q 240 725 245 718 q 251 711 251 702 q 251 688 240 650 q 229 611 209 559 q 188 505 163 449 q 138 392 136 387 l 24 74 q 21 67 20 63 q 19 58 19 57 q 19 54 21 52 q 23 49 25 49 q 33 49 78 81 q 123 114 197 173 z"},"8":{"x_min":0,"x_max":454,"ha":454,"o":"m 203 284 q 113 229 73 187 q 32 146 32 108 q 32 71 59 50 q 86 29 133 29 q 199 29 244 66 q 289 103 289 153 q 289 185 269 215 q 250 246 203 284 z m 178 306 q 140 344 124 371 q 109 397 109 425 q 109 487 165 531 q 220 575 301 575 q 347 575 375 565 q 404 556 404 541 q 404 537 400 535 q 396 532 390 532 q 381 532 351 538 q 321 544 299 544 q 236 544 192 510 q 148 476 148 430 q 148 408 163 384 q 178 360 212 329 q 267 366 316 402 q 366 439 416 479 l 417 460 l 417 458 q 417 433 317 364 q 266 329 235 306 q 286 259 307 224 q 328 189 328 153 q 328 87 271 41 q 215 -6 131 -6 q 67 -6 31 23 q -5 52 -5 102 q -5 150 35 196 q 75 242 178 306 z"},"\\":{"x_min":0,"x_max":199,"ha":199,"o":"m 143 -93 l 110 -93 l 54 701 l 86 701 z"},"e":{"x_min":0,"x_max":324,"ha":324,"o":"m 279 173 l 279 133 q 168 45 119 19 q 70 -7 28 -7 q -21 -7 -48 22 q -74 51 -74 105 q -74 147 -54 189 q -35 230 4 269 q 47 312 91 335 q 134 359 170 359 q 200 359 217 344 q 234 330 234 304 q 234 237 165 184 q 96 131 -2 131 q -13 131 -18 131 q -23 131 -28 132 q -30 124 -31 117 q -32 110 -32 103 q -32 67 -16 48 q 1 30 33 30 q 70 30 116 55 q 163 80 279 173 z m -22 167 q -14 166 -6 166 q 1 165 10 165 q 78 165 135 210 q 192 255 192 299 q 192 311 184 317 q 176 324 162 324 q 123 324 68 279 q 13 234 -22 167 z"},"b":{"x_min":0,"x_max":366,"ha":366,"o":"m 184 134 q 215 180 233 223 q 251 267 251 292 q 251 304 248 311 q 245 319 241 319 q 230 319 205 270 q 180 220 180 177 q 180 166 183 140 q 184 136 184 134 z m 6 174 q -14 155 -30 143 q -46 130 -60 122 l -60 162 q -21 191 9 221 q 39 250 44 262 l 207 658 q 220 689 233 707 q 247 725 258 725 q 263 725 266 719 q 270 712 270 703 q 270 680 218 565 q 165 449 134 375 l 34 135 q 24 112 19 93 q 14 74 14 61 q 14 49 23 40 q 33 31 46 31 q 67 31 95 49 q 124 66 161 102 q 151 119 147 136 q 142 154 142 174 q 142 240 179 299 q 216 359 252 359 q 268 359 278 343 q 289 328 289 303 q 289 267 269 216 q 249 165 213 115 l 215 115 q 231 115 255 128 q 279 141 325 177 l 325 137 q 283 104 257 92 q 231 79 209 79 q 205 79 194 80 q 188 81 185 81 q 147 38 110 15 q 73 -7 39 -7 q 8 -7 -10 10 q -27 26 -27 56 q -27 79 -19 107 q -11 136 6 174 z"},"%":{"x_min":0,"x_max":690,"ha":690,"o":"m 382 108 q 382 70 397 50 q 413 29 442 29 q 492 29 540 98 q 589 167 589 237 q 589 273 573 294 q 557 315 528 315 q 476 315 429 249 q 382 184 382 108 z m 437 -1 q 397 -1 372 28 q 347 58 347 106 q 347 146 365 193 q 384 240 414 277 q 441 309 471 326 q 502 343 533 343 q 573 343 598 314 q 622 285 622 236 q 622 193 604 146 q 586 100 555 64 q 529 33 498 16 q 468 -1 437 -1 z m 72 323 q 72 285 87 265 q 103 244 132 244 q 181 244 230 313 q 279 382 279 452 q 279 489 263 509 q 247 530 218 530 q 166 530 119 464 q 72 399 72 323 z m 517 541 q 464 503 414 483 q 365 462 312 455 q 307 356 250 285 q 194 213 126 213 q 85 213 61 242 q 36 271 36 320 q 36 360 54 406 q 72 453 103 490 q 130 522 160 539 q 191 556 222 556 q 255 556 278 536 q 301 517 308 482 q 369 486 424 512 q 479 539 531 588 l 564 560 q 523 506 447 406 q 184 66 112 -87 l 97 -70 q 93 -66 91 -62 q 89 -58 89 -54 q 89 -29 211 143 q 333 314 517 541 z"},"m":{"x_min":0,"x_max":616,"ha":616,"o":"m 571 173 l 571 133 l 547 114 q 392 -7 360 -7 q 348 -7 342 0 q 336 7 336 22 q 336 29 338 37 q 340 46 344 54 l 443 260 q 448 271 450 277 q 452 284 452 290 q 452 291 452 292 q 452 292 451 292 q 447 292 411 258 q 375 224 328 173 q 288 130 233 66 q 170 -7 152 -7 q 144 -7 139 -2 q 134 2 134 10 q 134 21 143 40 q 145 44 146 46 l 236 240 q 245 261 250 273 q 255 286 255 289 q 255 290 254 290 q 254 291 253 291 q 247 291 218 265 q 190 238 147 192 q 111 152 57 89 q -25 -7 -51 -7 q -60 -7 -65 0 q -71 8 -71 19 q -71 33 -32 102 q -8 146 7 174 q -12 157 -28 144 q -45 131 -60 122 l -60 162 q -21 190 8 219 q 37 249 44 262 l 88 352 l 131 352 l 11 100 q 123 225 197 292 q 271 359 296 359 q 306 359 311 354 q 316 350 316 341 q 316 334 313 324 q 310 314 303 298 l 217 105 q 325 228 397 293 q 469 359 494 359 q 503 359 509 354 q 514 349 514 341 q 514 333 511 322 q 507 312 501 298 l 398 74 q 395 66 393 63 q 392 60 392 58 q 392 54 394 52 q 396 49 398 49 q 406 49 452 82 q 498 115 571 173 z"},"#":{"x_min":0,"x_max":769,"ha":769,"o":"m 478 423 l 346 423 l 298 285 l 429 285 z m 447 710 l 362 467 l 494 467 l 580 710 l 634 710 l 549 467 l 706 467 l 691 423 l 533 423 l 484 285 l 654 285 l 639 241 l 468 241 l 383 0 l 328 0 l 414 241 l 282 241 l 195 0 l 141 0 l 226 241 l 63 241 l 78 285 l 242 285 l 291 423 l 115 423 l 129 467 l 307 467 l 393 710 z"},",":{"x_min":0,"x_max":227,"ha":227,"o":"m -1 71 l 69 71 l -40 -93 l -70 -93 z"},"n":{"x_min":0,"x_max":449,"ha":449,"o":"m -60 122 l -60 162 q -21 190 8 219 q 37 249 44 262 l 88 352 l 131 352 l 11 100 q 154 241 228 302 q 302 362 331 362 q 338 362 342 355 q 346 349 346 337 q 346 331 344 323 q 341 315 334 298 l 231 74 q 228 66 226 63 q 225 60 225 58 q 225 54 227 52 q 229 49 231 49 q 239 49 285 82 q 331 115 404 173 l 404 133 l 381 115 q 220 -10 186 -10 q 178 -10 172 -2 q 166 6 166 19 q 166 24 169 33 q 172 42 178 54 l 276 260 q 284 276 286 281 q 288 285 288 287 q 288 292 287 294 q 286 296 284 296 q 278 296 247 273 q 217 250 178 215 q 131 173 89 131 q 47 88 15 50 q 10 44 1 33 q -30 -7 -51 -7 q -60 -7 -65 0 q -71 7 -71 19 q -71 33 -26 113 q -5 151 7 174 q -12 157 -28 144 q -45 131 -60 122 z"},"h":{"x_min":0,"x_max":449,"ha":449,"o":"m -60 122 l -60 162 q -36 178 -11 203 q 15 227 44 262 l 222 643 q 227 653 234 670 q 259 725 276 725 q 281 725 285 720 q 289 714 289 706 q 289 687 218 538 q 183 466 163 423 l 11 100 q 154 241 228 302 q 302 362 331 362 q 338 362 342 355 q 346 349 346 337 q 346 331 344 323 q 341 315 334 298 l 231 74 q 228 66 226 63 q 225 60 225 58 q 225 54 227 52 q 229 49 231 49 q 239 49 285 82 q 331 115 404 173 l 404 133 l 381 115 q 220 -10 186 -10 q 178 -10 172 -2 q 166 6 166 19 q 166 24 169 33 q 172 42 178 54 l 276 260 q 284 276 286 281 q 288 285 288 287 q 288 292 287 294 q 286 296 284 296 q 278 296 247 273 q 217 250 178 215 q 131 173 89 131 q 47 88 15 50 q 10 44 1 33 q -30 -7 -51 -7 q -60 -7 -65 0 q -71 7 -71 19 q -71 33 -26 113 q -5 151 7 174 q -12 157 -28 144 q -45 131 -60 122 z"},"z":{"x_min":0,"x_max":352,"ha":352,"o":"m 304 171 l 304 130 q 253 84 154 -16 l 134 -37 q 92 -153 37 -223 q -18 -292 -64 -292 q -82 -292 -92 -281 q -102 -271 -102 -252 q -102 -217 -48 -154 q 6 -91 104 -14 q 114 8 119 31 q 124 54 124 77 q 124 91 120 101 q 115 111 106 120 q 89 109 74 103 q 59 97 47 97 q 36 97 29 103 q 21 109 21 118 q 21 133 40 147 q 58 161 82 161 q 86 161 92 160 q 98 159 110 155 q 161 188 186 221 q 212 254 212 285 q 212 300 201 311 q 189 321 173 321 q 146 321 72 245 q -3 168 -60 122 l -60 162 q -16 201 49 267 q 141 359 181 359 q 212 359 233 339 q 254 319 254 289 q 254 250 223 211 q 192 171 136 139 q 149 128 156 114 q 162 100 162 82 q 162 67 160 54 q 157 40 152 26 q 187 62 224 98 q 262 134 304 171 z m 92 -61 q 26 -116 -19 -170 q -65 -224 -65 -240 q -65 -247 -61 -250 q -58 -254 -51 -254 q -26 -254 17 -198 q 60 -143 92 -61 z"},"B":{"x_min":0,"x_max":509,"ha":509,"o":"m -72 -12 l 178 552 q 211 626 254 665 q 297 703 346 703 q 400 703 432 658 q 463 614 463 535 q 463 466 436 415 q 410 363 360 337 q 347 331 322 321 q 277 303 277 287 q 277 279 287 272 q 298 265 330 254 q 377 239 400 213 q 423 188 423 149 q 423 72 355 36 q 288 0 143 0 q 112 0 94 0 q 76 0 59 1 l 72 37 q 80 37 90 37 q 101 36 104 36 q 106 36 113 36 q 141 35 166 35 q 271 35 325 62 q 378 89 378 143 q 378 173 364 189 q 351 205 304 222 q 262 237 247 250 q 233 263 233 283 q 233 319 301 349 q 315 354 323 358 q 376 382 399 422 q 422 461 422 527 q 422 593 402 627 q 381 661 342 661 q 307 661 273 627 q 240 594 212 529 l -25 -12 z"},"K":{"x_min":0,"x_max":468,"ha":468,"o":"m -68 0 l 78 316 q 74 330 72 339 q 70 348 70 353 q 70 365 82 378 q 94 392 122 412 l 252 694 l 298 694 l 184 446 q 286 508 355 569 q 424 629 468 694 l 512 694 q 477 625 393 551 q 310 477 153 378 l 125 319 q 175 225 245 141 q 314 58 396 -7 l 340 -7 q 286 37 233 100 q 179 164 104 274 l -22 0 z"},"R":{"x_min":0,"x_max":421,"ha":421,"o":"m 309 -36 q 269 45 201 122 q 133 200 133 218 q 133 248 204 276 q 241 291 260 301 q 309 328 340 390 q 371 453 371 530 q 371 593 353 627 q 334 662 301 662 q 257 662 212 591 q 167 521 82 296 q 62 166 30 79 q -3 -8 -27 -8 q -34 -8 -38 0 q -42 7 -42 19 q -42 43 -10 142 q 22 241 74 376 q 151 575 201 638 q 250 702 310 702 q 358 702 387 656 q 415 609 415 527 q 415 439 383 373 q 350 307 289 271 q 265 256 221 241 q 178 226 178 216 q 178 211 242 141 q 306 70 342 -9 z"},"T":{"x_min":0,"x_max":521,"ha":521,"o":"m 229 -26 q 281 39 363 213 q 445 387 537 633 l 199 557 q 154 547 133 536 q 111 525 111 513 q 111 496 145 471 q 178 446 233 425 l 206 395 q 141 424 106 455 q 71 486 71 514 q 71 542 99 561 q 127 580 193 594 l 562 676 q 571 689 581 696 q 591 702 601 702 q 613 702 620 696 q 627 690 627 681 q 627 666 616 656 q 605 646 585 641 q 493 395 410 210 q 327 26 287 -26 z"},"P":{"x_min":0,"x_max":437,"ha":437,"o":"m 54 222 q 38 96 7 10 q -24 -77 -48 -77 q -54 -77 -59 -71 q -64 -65 -64 -58 q -64 -20 -25 111 q 14 241 76 389 q 142 547 203 625 q 265 702 323 702 q 372 702 401 656 q 430 611 430 532 q 430 357 348 246 q 266 134 138 134 q 118 134 108 139 q 98 144 98 153 q 98 163 105 167 q 113 172 128 172 q 132 172 139 171 q 145 171 148 171 q 244 171 317 279 q 390 387 390 539 q 390 598 371 630 q 353 662 319 662 q 264 662 199 555 q 135 447 54 222 z"},"|":{"x_min":0,"x_max":500,"ha":500,"o":"m 272 764 l 272 -236 l 228 -236 l 228 764 z"},"t":{"x_min":0,"x_max":271,"ha":271,"o":"m -16 91 l 26 191 q 0 167 -21 150 q -42 133 -60 122 l -60 162 q -13 198 21 230 q 56 261 58 268 l 117 415 l 25 415 l 41 447 l 131 447 l 189 589 q 190 592 193 599 q 216 658 234 658 q 242 658 247 654 q 252 649 252 642 q 252 635 248 621 q 243 607 234 587 l 175 447 l 248 447 l 236 415 l 162 415 l 33 100 q 31 96 28 88 q 17 63 17 55 q 17 47 21 43 q 25 39 33 39 q 49 39 177 136 q 209 160 227 174 l 227 133 l 227 133 q 42 -7 -2 -7 q -20 -7 -29 1 q -37 10 -37 27 q -37 42 -23 74 q -19 85 -16 91 z"},"M":{"x_min":0,"x_max":662,"ha":662,"o":"m -143 -23 q -73 42 -8 147 q 57 251 145 446 q 164 488 192 556 q 250 697 287 697 q 305 697 314 686 q 323 675 323 653 q 323 642 319 621 q 315 601 308 569 l 204 117 q 472 469 574 586 q 676 702 711 702 q 723 702 731 696 q 739 690 739 682 q 739 657 673 526 q 629 440 603 385 q 543 261 514 169 q 485 77 485 14 l 485 0 l 434 0 q 436 92 499 250 q 562 409 696 659 q 649 615 551 496 q 453 377 310 192 q 274 145 225 75 q 171 -2 156 -2 q 150 -2 145 5 q 140 12 140 21 q 140 30 148 62 q 151 75 153 83 l 278 647 q 257 600 215 505 q 59 142 -77 -23 z"},"g":{"x_min":0,"x_max":414,"ha":414,"o":"m 370 173 l 370 133 q 299 82 237 25 q 174 -32 116 -97 q 68 -219 46 -256 q 23 -292 2 -292 q -7 -292 -13 -284 q -19 -277 -19 -264 q -19 -224 12 -164 q 44 -103 95 -50 l 177 133 q 119 57 81 25 q 42 -8 11 -8 q -26 -8 -50 24 q -74 57 -74 108 q -74 147 -58 183 q -41 218 -7 251 q 43 300 107 330 q 171 359 225 359 q 257 359 281 349 q 306 338 324 317 l 303 287 q 285 307 266 316 q 248 325 223 325 q 186 325 135 303 q 83 281 40 245 q 2 214 -17 178 q -36 143 -36 104 q -36 69 -23 51 q -10 32 14 32 q 42 32 95 86 q 149 140 235 255 l 276 252 l 163 6 q 208 45 259 86 q 310 127 370 173 z"},"j":{"x_min":0,"x_max":271,"ha":271,"o":"m 100 265 q 33 197 0 168 q -32 140 -59 122 l -59 162 q -31 181 20 231 q 71 281 133 352 l 170 352 l 57 40 q 108 84 195 150 q 214 164 223 171 l 223 130 q 162 87 114 47 q 66 6 31 -32 l -36 -217 q -52 -260 -64 -276 q -76 -292 -90 -292 q -98 -292 -103 -283 q -108 -273 -108 -259 q -108 -221 -70 -149 q -32 -78 -26 -62 z m 159 421 q 148 421 142 427 q 136 434 136 444 q 136 464 149 483 q 162 501 178 501 q 188 501 194 494 q 200 488 200 477 q 200 454 189 437 q 177 421 159 421 z"},"i":{"x_min":0,"x_max":218,"ha":218,"o":"m 0 74 q -2 69 -4 64 q -6 60 -6 58 q -6 54 -4 52 q -2 49 0 49 q 8 49 54 82 q 100 115 173 173 l 173 133 l 150 115 q -11 -10 -45 -10 q -54 -10 -59 -2 q -65 6 -65 19 q -65 26 -62 35 q -60 44 -54 54 l 7 174 q -12 157 -28 144 q -45 131 -60 122 l -60 162 q -21 190 8 219 q 37 249 44 262 l 88 352 l 131 352 z m 139 421 q 128 421 122 427 q 116 434 116 444 q 116 464 129 483 q 142 501 158 501 q 168 501 175 494 q 181 488 181 477 q 181 454 169 438 q 157 421 139 421 z"},"y":{"x_min":0,"x_max":442,"ha":442,"o":"m 7 174 q -12 157 -28 144 q -45 131 -60 122 l -60 162 q -20 192 10 221 q 39 250 44 262 l 85 352 l 128 352 l 22 100 q 21 97 18 91 q 9 74 9 66 q 9 63 10 62 q 11 61 13 61 q 33 61 122 147 q 211 232 306 352 l 347 352 l 191 6 l 202 16 q 338 130 398 173 l 398 133 q 303 60 239 6 q 176 -48 147 -81 q 111 -188 83 -240 q 54 -292 31 -292 q 22 -292 17 -284 q 11 -277 11 -264 q 11 -224 42 -164 q 74 -103 125 -50 l 255 241 q 138 113 68 53 q -2 -7 -34 -7 q -46 -7 -51 -3 q -56 1 -56 12 q -56 18 -52 31 q -48 43 -41 61 z"},"@":{"x_min":0,"x_max":1000,"ha":1000,"o":"m 636 404 l 666 467 l 705 467 l 638 197 q 633 179 631 165 q 628 151 628 144 q 628 123 643 111 q 658 99 685 99 q 708 99 734 109 q 759 118 784 136 q 833 172 863 237 q 893 302 893 375 q 893 508 796 590 q 698 671 539 671 q 457 671 387 647 q 318 624 261 577 q 186 515 148 432 q 110 350 110 249 q 110 89 218 -6 q 326 -101 507 -101 q 585 -101 665 -76 q 745 -52 811 -7 l 825 -29 q 754 -83 675 -109 q 595 -136 509 -136 q 417 -136 341 -114 q 265 -91 206 -46 q 132 10 95 85 q 59 159 59 255 q 59 334 84 405 q 108 476 156 534 q 226 620 324 664 q 423 708 544 708 q 622 708 693 687 q 763 665 814 626 q 876 578 909 515 q 941 453 941 380 q 941 297 910 229 q 879 162 822 116 q 789 90 751 76 q 712 62 673 62 q 626 62 603 80 q 579 98 579 133 q 579 139 581 149 q 581 151 581 152 q 557 109 520 85 q 483 62 439 62 q 364 62 325 103 q 286 143 286 221 q 286 333 352 410 q 417 487 511 487 q 558 487 589 466 q 621 445 636 404 z m 595 228 l 626 352 q 615 400 586 426 q 557 451 512 451 q 438 451 387 384 q 337 316 337 218 q 337 162 365 130 q 393 98 443 98 q 497 98 539 134 q 580 169 595 228 z"},".":{"x_min":0,"x_max":227,"ha":227,"o":"m 2 -7 q -8 -7 -14 -1 q -20 5 -20 16 q -20 37 -6 54 q 7 71 24 71 q 35 71 40 65 q 46 59 46 48 q 46 28 32 10 q 18 -7 2 -7 z"},"p":{"x_min":0,"x_max":472,"ha":472,"o":"m 47 212 q 14 180 -12 158 q -39 136 -60 122 l -60 162 q -9 201 31 238 q 70 275 73 284 l 100 352 l 141 352 l 102 246 q 152 310 188 336 q 224 362 258 362 q 292 362 313 337 q 335 312 335 274 q 335 216 300 155 q 264 93 200 39 q 236 41 283 68 q 331 95 427 173 l 427 133 q 345 64 290 38 q 235 12 180 12 q 178 12 173 13 q 168 13 166 13 q 144 3 126 -2 q 109 -7 97 -7 q 75 -7 60 3 q 44 14 44 27 q 44 36 51 42 q 59 49 70 49 q 80 49 100 45 q 119 42 128 42 q 152 42 177 59 q 202 76 228 110 q 259 151 278 197 q 296 243 296 278 q 296 296 284 310 q 272 323 255 323 q 230 323 205 306 q 179 289 144 249 q 102 200 70 146 q 39 92 18 32 q 9 6 -7 -62 q -23 -130 -39 -211 l -40 -216 q -55 -292 -77 -292 q -85 -292 -90 -285 q -95 -277 -95 -266 q -95 -251 -81 -188 q -66 -125 -43 -42 q -18 48 3 107 q 24 167 47 212 z"},"X":{"x_min":0,"x_max":410,"ha":410,"o":"m -140 -8 q -22 97 64 187 q 149 277 210 359 l 214 624 q 214 646 211 651 q 208 656 200 656 q 183 656 151 621 q 119 586 63 507 l 56 560 q 101 630 140 666 q 179 701 212 701 q 237 701 247 689 q 257 677 257 643 l 257 633 l 252 409 q 323 502 384 562 q 445 622 512 666 l 510 616 q 441 563 376 495 q 312 426 250 342 q 250 240 265 154 q 279 67 308 0 l 255 0 q 232 60 220 131 q 209 202 209 285 l 209 296 q 128 196 56 119 q -17 42 -78 -8 z"},"*":{"x_min":0,"x_max":324,"ha":324,"o":"m 146 397 l 102 428 l 195 531 l 60 562 l 77 612 l 204 553 l 193 694 l 238 694 l 228 554 l 355 612 l 371 561 l 236 531 l 329 428 l 287 397 l 216 516 z"},"Y":{"x_min":0,"x_max":565,"ha":565,"o":"m 63 354 l 22 329 l 16 331 q 48 487 120 595 q 193 702 259 702 q 286 702 302 685 q 318 668 318 640 q 318 625 307 594 q 297 564 273 509 l 94 103 q 93 101 91 96 q 76 62 76 52 q 76 44 78 40 q 80 36 84 36 q 109 36 228 143 q 347 250 489 409 l 558 553 l 599 549 l 337 -54 q 297 -146 260 -201 q 223 -255 200 -255 q 192 -255 188 -250 q 183 -246 183 -238 q 183 -233 224 -173 q 265 -113 295 -44 l 451 312 q 287 139 199 65 q 111 -8 69 -8 q 49 -8 39 3 q 29 14 29 35 q 29 45 34 61 q 39 76 55 115 l 236 529 q 239 536 244 548 q 275 618 275 632 q 275 646 268 653 q 260 660 246 660 q 210 660 152 568 q 93 476 63 354 z"},"c":{"x_min":0,"x_max":324,"ha":324,"o":"m 278 173 l 278 133 q 165 42 117 18 q 69 -7 27 -7 q -21 -7 -46 21 q -72 50 -72 103 q -72 146 -54 188 q -37 230 -3 267 q 37 310 84 334 q 131 359 174 359 q 202 359 220 345 q 239 332 239 312 q 239 305 236 295 q 234 285 229 274 l 198 205 l 163 218 l 193 284 q 196 290 198 295 q 199 299 199 303 q 199 313 192 319 q 186 324 173 324 q 139 324 96 299 q 52 274 20 235 q -5 205 -17 171 q -30 137 -30 101 q -30 64 -13 45 q 3 27 36 27 q 91 27 252 153 z"},"!":{"x_min":0,"x_max":227,"ha":227,"o":"m 16 126 l 173 556 q 182 581 188 590 q 195 599 204 599 q 214 599 222 594 q 229 589 229 581 q 229 578 226 569 q 224 561 218 546 l 46 122 z m -16 -7 q -26 -7 -32 -1 q -38 5 -38 16 q -38 37 -24 54 q -11 71 6 71 q 17 71 22 65 q 28 59 28 48 q 28 28 14 10 q 0 -7 -16 -7 z"},"/":{"x_min":0,"x_max":199,"ha":199,"o":"m -100 -93 l 236 701 l 272 701 l -65 -93 z"},"[":{"x_min":0,"x_max":269,"ha":269,"o":"m 53 -241 l -81 -241 l 241 694 l 370 694 l 361 669 l 272 669 l -33 -215 l 61 -215 z"},"6":{"x_min":0,"x_max":454,"ha":454,"o":"m 126 -7 q 71 -7 41 26 q 11 60 11 119 q 11 188 58 274 q 104 361 187 443 q 249 504 310 546 q 371 588 392 588 q 397 588 399 585 q 402 582 402 576 q 402 563 355 534 q 309 504 273 473 q 168 383 111 290 q 53 197 53 120 q 53 78 72 54 q 91 30 124 30 q 154 30 186 48 q 217 66 248 100 q 282 139 301 182 q 320 225 320 260 q 320 292 306 311 q 292 330 268 330 q 228 330 194 301 q 160 271 157 271 q 150 271 146 274 q 142 277 142 282 q 142 304 183 334 q 223 364 270 364 q 313 364 338 337 q 363 311 363 264 q 363 220 342 171 q 320 121 282 78 q 246 36 206 15 q 166 -7 126 -7 z"},"r":{"x_min":0,"x_max":345,"ha":345,"o":"m 127 74 q 125 69 124 64 q 122 60 122 58 q 122 55 124 52 q 125 49 128 49 q 136 49 181 81 q 226 114 300 173 l 300 133 l 277 115 q 116 -10 82 -10 q 74 -10 68 -2 q 63 6 63 18 q 63 23 66 33 q 69 42 74 54 l 158 241 q 162 250 169 265 q 182 292 182 298 q 182 311 140 314 q 119 315 106 317 q 76 257 35 209 q -6 161 -60 122 l -60 162 q -19 191 16 234 q 51 277 75 328 q 65 334 61 342 q 57 349 57 361 q 57 380 67 392 q 77 404 92 404 q 104 404 113 395 q 121 386 121 373 q 121 367 120 361 q 119 356 117 350 q 129 350 142 351 q 146 351 147 351 q 188 351 206 340 q 223 329 223 304 q 223 295 219 282 q 214 269 198 233 z"},"2":{"x_min":0,"x_max":454,"ha":454,"o":"m 55 56 q 20 69 2 74 q -15 79 -25 79 q -42 79 -51 72 q -60 64 -60 49 q -60 36 -52 30 q -44 23 -29 23 q -11 23 10 31 q 30 39 55 56 z m 81 41 q 43 14 17 4 q -9 -7 -34 -7 q -62 -7 -78 8 q -94 23 -94 49 q -94 75 -75 92 q -56 108 -25 108 q -10 108 12 102 q 35 96 84 78 q 229 201 310 307 q 392 413 392 476 q 392 504 377 520 q 362 536 335 536 q 306 536 274 520 q 243 504 212 473 q 198 459 181 435 q 165 410 152 410 q 146 410 141 414 q 136 417 136 423 q 136 434 152 456 q 167 479 193 503 q 231 539 268 557 q 305 575 340 575 q 385 575 409 550 q 434 525 434 479 q 434 403 351 294 q 267 186 116 66 q 157 48 190 40 q 224 32 255 32 q 282 32 308 39 q 333 45 359 59 l 359 34 q 359 17 330 5 q 300 -7 257 -7 q 217 -7 172 5 q 128 17 81 41 z"},"{":{"x_min":0,"x_max":500,"ha":500,"o":"m 414 678 l 396 678 q 330 678 307 653 q 284 628 284 549 l 284 431 q 284 346 263 310 q 242 274 189 259 q 242 243 263 208 q 284 173 284 87 l 284 -31 q 284 -110 307 -135 q 330 -159 395 -159 l 414 -159 l 414 -202 l 393 -202 q 301 -202 267 -166 q 234 -129 234 -19 l 234 98 q 234 175 206 207 q 177 238 108 238 q 104 238 97 237 q 90 237 86 237 l 86 281 q 91 280 96 280 q 101 280 110 280 q 178 280 206 311 q 234 343 234 420 l 234 537 q 234 648 267 685 q 301 721 393 721 l 414 721 z"},"9":{"x_min":0,"x_max":454,"ha":454,"o":"m 144 216 q 103 216 80 242 q 56 268 56 312 q 56 353 76 398 q 96 444 132 486 q 169 530 213 554 q 257 577 301 577 q 354 577 385 547 q 415 517 415 463 q 415 397 362 302 q 309 206 217 109 q 147 36 84 -14 q 20 -64 1 -64 q -4 -64 -8 -60 q -12 -56 -12 -50 q -12 -42 -4 -32 q 5 -23 30 -7 q 64 15 103 50 q 142 86 191 140 q 277 235 324 321 q 372 407 372 467 q 372 503 353 522 q 333 542 297 542 q 269 542 237 525 q 206 507 174 474 q 137 435 117 392 q 97 348 97 308 q 97 281 110 267 q 122 252 145 252 q 165 252 188 262 q 212 273 233 291 q 241 298 254 314 q 268 330 276 330 q 283 330 288 326 q 293 322 293 316 q 293 291 244 253 q 195 216 144 216 z"}," ":{"x_min":0,"x_max":227,"ha":227,"o":""},"I":{"x_min":0,"x_max":326,"ha":326,"o":"m 115 370 l 73 334 l 67 338 q 67 340 66 346 q 66 352 66 354 q 66 390 77 430 q 88 471 111 518 q 152 605 205 658 q 258 712 299 712 q 326 712 341 693 q 355 673 355 637 q 355 607 346 562 q 337 518 318 455 q 292 373 264 309 q 235 244 200 190 q 142 99 79 46 q 17 -7 -31 -7 q -47 -7 -62 -1 q -78 5 -93 17 l -71 54 q -59 46 -49 42 q -38 38 -28 38 q 3 38 53 83 q 104 129 154 204 q 187 254 213 308 q 240 363 261 423 q 287 496 302 556 q 317 617 317 640 q 317 655 310 664 q 303 673 291 673 q 267 673 228 627 q 189 581 154 507 q 136 469 127 436 q 117 402 115 370 z"},"H":{"x_min":0,"x_max":815,"ha":815,"o":"m 694 270 l 702 234 q 683 228 658 223 q 634 218 587 211 q 570 158 554 105 q 539 53 525 0 l 481 0 q 496 56 511 106 q 526 156 543 202 q 519 196 479 192 q 439 188 377 185 q 314 93 229 42 q 145 -9 57 -9 q 7 -9 -24 13 q -54 35 -54 70 q -54 135 50 175 q 154 214 350 223 q 404 299 444 401 q 484 503 509 628 l 551 633 q 528 510 490 408 q 452 306 399 224 q 403 224 411 225 q 418 225 422 225 q 433 225 471 229 q 508 233 556 240 q 632 464 686 583 q 740 701 766 701 q 773 701 777 698 q 781 695 781 691 q 781 687 763 649 q 671 460 602 250 q 625 254 648 259 q 671 264 694 270 z m 324 182 q 162 172 75 144 q -11 116 -11 72 q -11 53 9 40 q 30 27 61 27 q 125 27 197 69 q 269 111 324 182 z"},"4":{"x_min":0,"x_max":454,"ha":454,"o":"m 63 203 q 36 168 23 158 q 10 149 -5 149 q -16 149 -22 155 q -28 160 -28 170 q -28 194 35 226 q 44 230 48 232 q 89 291 130 373 q 171 456 224 589 l 252 589 q 258 589 262 587 q 265 586 265 583 q 265 558 214 457 q 163 356 83 230 q 118 230 156 228 q 195 225 239 220 l 357 452 q 374 486 384 497 q 393 508 403 508 q 409 508 413 504 q 417 501 417 496 q 417 491 415 484 q 413 478 407 466 l 279 216 q 290 215 308 213 q 327 211 334 211 q 350 211 365 214 q 380 218 381 218 q 383 218 384 217 q 385 216 385 213 q 385 210 384 208 q 383 205 382 202 l 371 180 q 371 179 367 179 q 363 178 347 178 q 341 178 313 181 q 285 185 263 186 l 192 20 q 186 6 181 0 q 175 -5 167 -5 q 160 -5 154 0 q 149 5 149 11 q 149 20 160 44 q 163 52 165 56 l 225 194 q 184 198 143 201 q 103 203 63 203 z"},"~":{"x_min":0,"x_max":833,"ha":833,"o":"m 747 316 q 695 280 648 262 q 602 244 558 244 q 510 244 428 274 q 420 277 417 278 q 412 280 401 284 q 320 313 276 313 q 235 313 190 295 q 146 276 87 235 l 87 280 q 138 316 185 333 q 232 351 276 351 q 325 351 408 321 q 414 319 417 318 q 421 316 431 313 q 513 283 558 283 q 599 283 644 302 q 688 320 747 361 z"},"D":{"x_min":0,"x_max":731,"ha":731,"o":"m 306 445 l 289 420 q 191 473 135 531 q 78 589 78 635 q 78 667 98 684 q 118 702 153 702 q 214 702 287 658 q 360 614 442 528 q 452 544 462 558 q 473 572 484 583 l 516 562 q 505 547 494 530 q 484 514 475 496 q 548 417 587 341 q 625 266 625 203 q 625 103 553 48 q 480 -7 348 -7 q 316 -7 275 -3 q 234 0 183 8 q 129 0 96 -4 q 63 -7 39 -7 q -5 -7 -25 1 q -46 9 -46 27 q -46 41 -32 50 q -18 59 5 59 q 19 59 74 51 q 130 43 172 43 l 179 43 q 223 80 259 133 q 294 186 329 266 l 426 492 q 349 575 276 622 q 203 669 152 669 q 132 669 122 660 q 112 650 112 632 q 112 597 165 546 q 217 495 306 445 z m 231 39 q 252 37 276 36 q 299 35 326 35 q 402 35 443 44 q 484 53 513 73 q 545 96 563 131 q 581 166 581 206 q 581 257 548 322 q 515 386 455 453 l 363 240 q 329 161 298 115 q 268 68 231 39 z"},"^":{"x_min":0,"x_max":1000,"ha":1000,"o":"m 528 712 l 792 440 l 731 440 l 500 669 l 268 440 l 207 440 l 470 712 z"},"0":{"x_min":0,"x_max":454,"ha":454,"o":"m 123 -7 q 65 -7 32 34 q 0 76 0 150 q 0 228 28 308 q 55 389 104 455 q 147 514 198 545 q 249 577 299 577 q 358 577 391 535 q 424 494 424 420 q 424 354 395 273 q 366 192 317 125 q 271 62 221 28 q 170 -7 123 -7 z m 37 144 q 37 90 61 58 q 84 27 124 27 q 171 27 222 73 q 272 120 318 205 q 350 265 367 326 q 385 387 385 434 q 385 486 362 515 q 339 545 300 545 q 258 545 213 512 q 168 479 129 420 q 87 356 62 280 q 37 204 37 144 z"},"F":{"x_min":0,"x_max":602,"ha":602,"o":"m 531 171 l 400 171 q 348 77 319 31 q 290 -15 264 -44 l 206 -44 q 251 10 288 63 q 324 117 354 171 l 278 171 l 295 208 l 375 208 q 480 417 518 503 q 555 589 555 620 q 555 644 543 654 q 531 665 505 665 q 456 665 379 626 q 301 587 230 524 q 151 454 99 381 q 47 308 47 274 q 47 258 55 250 q 63 242 80 242 q 121 242 190 310 q 259 377 345 502 l 367 467 q 278 333 204 266 q 130 200 70 200 q 39 200 21 218 q 3 235 3 265 q 3 312 58 393 q 114 474 201 550 q 285 622 368 662 q 452 702 516 702 q 556 702 578 684 q 600 665 600 631 q 600 592 555 487 q 511 382 420 208 l 546 208 z"},"`":{"x_min":0,"x_max":500,"ha":500,"o":"m 295 395 l 224 528 l 283 528 l 330 395 z"},"k":{"x_min":0,"x_max":440,"ha":440,"o":"m 5 174 q -15 155 -31 143 q -47 130 -61 122 l -61 162 q -21 192 9 221 q 38 250 43 262 l 226 668 q 241 702 250 714 q 259 725 270 725 q 277 725 281 719 q 286 714 286 705 q 286 679 225 554 q 188 480 167 435 l 32 146 q 142 277 192 318 q 243 359 284 359 q 309 359 322 344 q 336 328 336 301 q 336 244 283 191 q 231 138 144 112 q 138 101 135 91 q 132 81 132 72 q 132 53 143 42 q 155 31 176 31 q 213 31 387 167 l 395 173 l 395 133 l 395 133 q 218 -7 172 -7 q 137 -7 114 15 q 92 36 92 70 q 92 87 98 105 q 104 122 118 142 q 195 165 244 209 q 293 254 293 295 q 293 307 288 312 q 282 318 271 318 q 250 318 204 279 q 158 240 100 171 q 59 123 7 54 q -39 -7 -52 -7 q -59 -7 -63 -3 q -68 0 -68 7 q -68 21 -46 66 l -44 70 z"},"u":{"x_min":0,"x_max":449,"ha":449,"o":"m 232 75 q 229 69 228 66 q 227 62 227 60 q 227 57 229 54 q 230 51 233 51 q 240 51 282 81 q 325 111 405 174 l 405 134 q 302 53 255 23 q 208 -8 187 -8 q 179 -8 173 0 q 168 8 168 20 q 168 25 171 35 q 174 45 179 56 l 269 249 q 157 131 73 62 q -11 -7 -40 -7 q -51 -7 -56 0 q -62 7 -62 21 q -62 28 -59 38 q -57 47 -52 57 l 8 175 q -9 160 -26 146 q -42 133 -59 123 l -59 163 q -20 191 10 221 q 40 250 45 262 l 89 352 l 132 352 l 8 92 q 5 86 4 82 q 3 78 3 75 q 3 68 5 64 q 7 61 10 61 q 28 61 123 147 q 217 233 317 352 l 360 352 z"},"]":{"x_min":0,"x_max":269,"ha":269,"o":"m 146 694 l 279 694 l -43 -241 l -171 -241 l -162 -215 l -73 -215 l 231 669 l 138 669 z"},"U":{"x_min":0,"x_max":625,"ha":625,"o":"m 414 0 l 414 9 q 414 80 450 182 q 486 285 554 407 q 328 160 235 76 q 141 -9 101 -9 q 86 -9 78 -1 q 70 6 70 21 q 70 49 233 403 l 237 412 q 292 530 306 570 q 320 609 320 630 q 320 646 311 654 q 303 661 285 661 q 258 661 217 619 q 175 576 133 505 q 112 470 98 432 q 84 395 77 354 l 28 325 q 55 481 136 592 q 218 702 294 702 q 326 702 344 684 q 363 667 363 636 q 363 583 257 357 l 245 330 l 219 274 q 121 64 121 47 q 121 44 122 43 q 123 42 125 42 q 147 42 240 132 q 333 222 600 507 l 646 584 l 694 599 q 562 350 513 223 q 464 95 464 14 l 464 0 z"},"o":{"x_min":0,"x_max":344,"ha":344,"o":"m 166 137 q 188 177 200 208 q 212 239 212 256 q 212 263 207 269 q 203 275 197 275 q 183 275 169 246 q 155 216 155 183 q 155 171 158 160 q 160 149 166 137 z m 304 177 l 304 137 q 264 105 237 92 q 211 79 189 79 q 185 79 174 80 q 170 81 168 81 q 129 37 95 15 q 62 -7 30 -7 q -12 -7 -36 25 q -61 56 -61 110 q -61 172 -29 229 q 3 287 61 329 q 87 348 117 360 q 147 373 161 373 q 167 373 171 368 q 175 364 175 357 q 175 345 145 332 q 114 318 94 305 q 45 272 13 217 q -19 162 -19 111 q -19 77 -2 54 q 15 31 38 31 q 60 31 85 49 q 110 66 142 104 q 130 124 124 143 q 118 162 118 182 q 118 233 147 276 q 176 319 206 319 q 224 319 236 303 q 248 287 248 262 q 248 233 233 193 q 218 154 192 115 l 194 115 q 210 115 234 128 q 258 141 304 177 z"},"N":{"x_min":0,"x_max":495,"ha":495,"o":"m -53 -19 l -109 -19 q -4 123 140 463 l 148 482 q 158 506 175 547 q 238 701 268 701 q 286 701 293 683 q 301 665 301 622 l 303 107 q 337 187 399 358 q 461 530 503 605 l 524 559 q 461 414 385 207 q 309 0 283 0 q 273 0 268 9 q 262 18 262 34 l 262 71 l 258 629 q 226 561 167 423 q 40 119 -53 -19 z"},"+":{"x_min":0,"x_max":833,"ha":833,"o":"m 436 596 l 436 318 l 709 318 l 709 278 l 436 278 l 436 0 l 397 0 l 397 278 l 124 278 l 124 318 l 397 318 l 397 596 z"},"G":{"x_min":0,"x_max":493,"ha":493,"o":"m 178 -141 q 215 -98 248 -37 q 281 24 321 122 q 259 61 199 27 q 140 -7 95 -7 q 46 -7 15 29 q -15 64 -15 124 q -15 201 28 313 q 71 426 138 515 q 203 602 279 653 q 355 703 419 703 q 468 703 497 672 q 527 640 527 589 q 527 531 494 484 q 461 437 396 401 l 395 440 q 438 472 461 512 q 485 553 485 594 q 485 626 467 645 q 449 663 418 663 q 366 663 298 615 q 230 568 174 489 q 113 404 73 297 q 33 190 33 124 q 33 84 52 62 q 70 39 103 39 q 145 39 205 77 q 266 115 325 181 q 360 220 390 277 q 419 334 440 334 q 450 334 457 326 q 464 318 464 308 q 464 296 430 250 q 416 231 408 220 q 330 16 265 -98 q 200 -212 162 -212 q 159 -212 157 -208 q 155 -205 155 -199 q 155 -194 155 -191 q 156 -189 157 -187 z"},"q":{"x_min":0,"x_max":414,"ha":414,"o":"m 373 177 l 373 137 q 337 104 302 78 q 268 52 232 30 q 223 -100 168 -196 q 114 -292 62 -292 q 41 -292 29 -278 q 16 -264 16 -239 q 16 -226 21 -210 q 26 -193 41 -161 l 179 133 q 122 57 83 25 q 44 -8 13 -8 q -24 -8 -48 24 q -72 57 -72 108 q -72 147 -55 182 q -39 217 -4 251 q 46 300 110 330 q 174 359 228 359 q 260 359 284 349 q 308 338 326 317 l 305 287 q 287 308 269 316 q 250 325 226 325 q 184 325 128 299 q 73 272 25 228 q -4 201 -18 172 q -32 143 -32 109 q -32 73 -20 55 q -8 37 17 37 q 41 37 85 79 q 128 121 238 255 l 278 252 l 68 -190 q 61 -205 58 -215 q 54 -226 54 -232 q 54 -241 58 -248 q 62 -254 67 -254 q 79 -254 103 -226 q 127 -197 148 -156 q 171 -111 184 -60 q 197 -9 199 46 q 268 93 308 123 q 347 152 373 177 z"},"d":{"x_min":0,"x_max":456,"ha":456,"o":"m 209 200 q 286 327 334 456 q 382 584 384 660 q 334 592 288 470 q 241 348 209 200 z m 410 173 l 410 133 l 382 112 q 229 -7 197 -7 q 175 -7 164 11 q 153 28 153 64 l 153 73 q 111 32 79 12 q 47 -7 22 -7 q -19 -7 -42 25 q -65 57 -65 113 q -65 216 16 292 q 98 369 212 369 l 214 369 q 268 530 321 628 q 375 726 406 726 q 416 726 421 713 q 426 701 426 678 q 426 640 408 572 q 390 503 356 417 q 321 328 281 252 q 240 177 196 118 q 194 108 193 98 q 192 88 192 79 q 192 61 198 49 q 205 37 214 37 q 237 37 372 143 z m 161 137 q 165 173 175 217 q 184 261 203 331 l 201 331 q 114 331 45 264 q -23 197 -23 117 q -23 80 -8 57 q 7 34 31 34 q 51 34 82 59 q 113 83 161 137 z"},"1":{"x_min":0,"x_max":454,"ha":454,"o":"m 261 423 q 238 405 213 392 q 188 378 161 368 l 163 400 q 201 415 231 436 q 262 457 285 485 q 307 528 323 549 q 340 569 354 569 q 365 569 370 563 q 375 558 375 546 q 375 530 361 509 q 347 488 323 469 q 310 446 255 323 q 200 200 150 102 q 146 93 138 78 q 99 0 71 0 l 39 0 q 91 74 146 180 q 202 286 261 423 z"},"5":{"x_min":0,"x_max":454,"ha":454,"o":"m 112 348 l 165 480 q 188 537 209 554 q 230 572 276 572 q 291 572 328 569 q 365 566 387 566 q 403 566 416 567 q 430 568 442 570 l 437 550 q 434 535 427 530 q 420 525 406 525 q 385 525 342 530 q 298 534 275 534 q 243 534 228 523 q 213 512 197 475 l 152 371 q 187 391 211 399 q 235 407 257 407 q 309 407 341 373 q 373 339 373 283 q 373 243 353 195 q 332 147 297 106 q 250 49 194 21 q 139 -7 76 -7 q 24 -7 -9 16 q -42 39 -42 74 q -42 86 -38 93 q -35 100 -28 100 q -18 100 -12 81 q -11 76 -10 74 q -2 49 19 37 q 41 25 77 25 q 125 25 169 46 q 213 68 252 110 q 288 149 310 197 q 332 245 332 282 q 332 324 310 348 q 288 372 249 372 q 226 372 200 363 q 174 354 140 334 q 133 304 119 288 q 106 272 88 272 q 81 272 76 278 q 71 284 71 293 q 71 306 82 321 q 93 335 112 348 z"}}}
